<svg width="28" height="28" viewBox="0 0 28 28" fill="none" xmlns="http://www.w3.org/2000/svg">
<g id="baseline-more_vert-24px">
<path id="Vector" d="M18.6667 14.0001C18.6667 15.2834 19.7167 16.3334 21 16.3334C22.2834 16.3334 23.3334 15.2834 23.3334 14.0001C23.3334 12.7167 22.2834 11.6667 21 11.6667C19.7167 11.6667 18.6667 12.7167 18.6667 14.0001ZM16.3334 14.0001C16.3334 12.7167 15.2834 11.6667 14 11.6667C12.7167 11.6667 11.6667 12.7167 11.6667 14.0001C11.6667 15.2834 12.7167 16.3334 14 16.3334C15.2834 16.3334 16.3334 15.2834 16.3334 14.0001ZM9.33337 14.0001C9.33337 12.7167 8.28337 11.6667 7.00004 11.6667C5.71671 11.6667 4.66671 12.7167 4.66671 14.0001C4.66671 15.2834 5.71671 16.3334 7.00004 16.3334C8.28337 16.3334 9.33337 15.2834 9.33337 14.0001Z" fill="black"/>
</g>
</svg>
