<svg width="20" height="20" viewBox="0 0 20 20" fill="none" xmlns="http://www.w3.org/2000/svg">
<g id="outline-location_on-24px" clip-path="url(#clip0_1_886)">
<g id="Outline">
<g id="Group">
<path id="Vector" d="M9.99996 1.66675C6.77496 1.66675 4.16663 4.27508 4.16663 7.50008C4.16663 11.8751 9.99996 18.3334 9.99996 18.3334C9.99996 18.3334 15.8333 11.8751 15.8333 7.50008C15.8333 4.27508 13.225 1.66675 9.99996 1.66675ZM5.83329 7.50008C5.83329 5.20008 7.69996 3.33342 9.99996 3.33342C12.3 3.33342 14.1666 5.20008 14.1666 7.50008C14.1666 9.90008 11.7666 13.4918 9.99996 15.7334C8.26663 13.5084 5.83329 9.87508 5.83329 7.50008Z" fill="black"/>
<path id="Vector_2" d="M9.99996 9.58341C11.1506 9.58341 12.0833 8.65067 12.0833 7.50008C12.0833 6.34949 11.1506 5.41675 9.99996 5.41675C8.84937 5.41675 7.91663 6.34949 7.91663 7.50008C7.91663 8.65067 8.84937 9.58341 9.99996 9.58341Z" fill="black"/>
</g>
</g>
</g>
<defs>
<clipPath id="clip0_1_886">
<rect width="20" height="20" fill="white"/>
</clipPath>
</defs>
</svg>
