<svg width="20" height="20" viewBox="0 0 20 20" fill="none" xmlns="http://www.w3.org/2000/svg">
<g id="outline-work_outline-24px" clip-path="url(#clip0_1_941)">
<path id="Vector" d="M11.6667 5.00008V3.33341H8.33342V5.00008H11.6667ZM3.33341 6.66675V15.8334H16.6667V6.66675H3.33341ZM16.6667 5.00008C17.5917 5.00008 18.3334 5.74175 18.3334 6.66675V15.8334C18.3334 16.7584 17.5917 17.5001 16.6667 17.5001H3.33341C2.40841 17.5001 1.66675 16.7584 1.66675 15.8334L1.67508 6.66675C1.67508 5.74175 2.40841 5.00008 3.33341 5.00008H6.66675V3.33341C6.66675 2.40841 7.40841 1.66675 8.33342 1.66675H11.6667C12.5917 1.66675 13.3334 2.40841 13.3334 3.33341V5.00008H16.6667Z" fill="black"/>
</g>
<defs>
<clipPath id="clip0_1_941">
<rect width="20" height="20" fill="white"/>
</clipPath>
</defs>
</svg>
